<svg xmlns="http://www.w3.org/2000/svg" width="256" height="256" viewBox="0 0 100 100"><rect width="100" height="100" rx="50" fill="#7d6ee7"></rect><path fill="#fff" d="M33.38 60.54L33.38 60.54Q32.67 61.10 31.55 61.45Q30.43 61.80 28.96 61.80L28.96 61.80Q27.14 61.80 25.92 61.34Q24.69 60.89 24.20 59.70L24.20 59.70Q21.33 52.56 19.37 47.52Q17.41 42.48 16.22 38.91L16.22 38.91L15.87 38.91Q15.66 43.59 15.49 47.52Q15.31 51.44 15.17 55.18Q15.03 58.93 14.86 62.78Q14.68 66.63 14.40 71.11L14.40 71.11Q13.70 71.31 12.65 71.53Q11.60 71.73 10.41 71.73L10.41 71.73Q5.72 71.73 5.72 68.23L5.72 68.23Q5.72 67.12 5.83 64.77Q5.93 62.43 6.11 59.31Q6.28 56.20 6.53 52.48Q6.77 48.78 7.02 45.00Q7.26 41.22 7.54 37.54Q7.82 33.87 8.03 30.72L8.03 30.72Q8.59 30.02 10.10 29.28Q11.60 28.55 13.98 28.55L13.98 28.55Q16.64 28.55 18.29 29.42Q19.93 30.30 20.77 32.33L20.77 32.33Q21.68 34.50 22.70 37.09Q23.71 39.67 24.76 42.41Q25.81 45.14 26.83 47.76Q27.84 50.39 28.75 52.70L28.75 52.70L29.03 52.70Q31.41 46.12 33.76 39.95Q36.11 33.80 37.86 29.52L37.86 29.52Q38.69 29.11 40.02 28.83Q41.36 28.55 42.75 28.55L42.75 28.55Q45.34 28.55 46.88 29.31Q48.42 30.09 48.77 31.63L48.77 31.63Q49.05 32.95 49.41 35.86Q49.75 38.77 50.11 42.48Q50.45 46.19 50.80 50.39Q51.16 54.59 51.44 58.47Q51.72 62.36 51.92 65.58Q52.14 68.80 52.20 70.62L52.20 70.62Q51.30 71.18 50.28 71.45Q49.27 71.73 47.80 71.73L47.80 71.73Q45.97 71.73 44.61 71Q43.25 70.27 43.11 68.23L43.11 68.23Q42.83 63.83 42.61 59.59Q42.41 55.36 42.27 51.58Q42.13 47.80 41.98 44.61Q41.84 41.42 41.77 39.12L41.77 39.12L41.42 39.12Q40.30 42.41 38.34 47.48Q36.38 52.56 33.38 60.54ZM94.00 34.22L94.00 34.22Q94.00 35.62 93.22 36.63Q92.46 37.65 91.47 38.20L91.47 38.20Q89.66 37.02 87.42 36.04Q85.18 35.05 81.89 35.05L81.89 35.05Q75.94 35.05 72.40 38.91Q68.87 42.76 68.87 50.04L68.87 50.04Q68.87 57.46 72.50 61.17Q76.15 64.88 82.31 64.88L82.31 64.88Q85.53 64.88 87.87 64Q90.22 63.13 92.03 61.94L92.03 61.94Q93.02 62.57 93.65 63.65Q94.28 64.73 94.28 66.14L94.28 66.14Q94.28 67.33 93.65 68.31Q93.02 69.29 91.55 70.06L91.55 70.06Q90.15 70.90 87.59 71.63Q85.03 72.37 81.25 72.37L81.25 72.37Q76.64 72.37 72.68 71Q68.72 69.64 65.78 66.87Q62.84 64.11 61.16 59.91Q59.48 55.71 59.48 50.04L59.48 50.04Q59.48 44.58 61.16 40.41Q62.84 36.25 65.75 33.41Q68.66 30.58 72.54 29.11Q76.43 27.63 80.77 27.63L80.77 27.63Q83.78 27.63 86.23 28.16Q88.68 28.69 90.43 29.59Q92.18 30.51 93.09 31.70Q94.00 32.88 94.00 34.22Z"></path></svg>