<svg xmlns="http://www.w3.org/2000/svg" width="256" height="256" viewBox="0 0 100 100"><rect width="100" height="100" rx="50" fill="#000000"></rect><path d="M36.71 59.15L36.71 59.15Q35.99 59.75 34.85 60.11Q33.71 60.47 32.27 60.47L32.27 60.47Q30.35 60.47 29.06 59.99Q27.77 59.51 27.35 58.31L27.35 58.31Q25.43 52.73 24.08 49.04Q22.73 45.35 21.95 42.65L21.95 42.65L21.71 42.65Q21.53 46.37 21.41 49.46Q21.29 52.55 21.20 55.49Q21.11 58.43 20.99 61.43Q20.87 64.43 20.69 68.03L20.69 68.03Q20.03 68.27 18.92 68.48Q17.81 68.69 16.61 68.69L16.61 68.69Q14.27 68.69 12.95 67.88Q11.63 67.07 11.63 65.09L11.63 65.09Q11.63 63.95 11.72 61.94Q11.81 59.93 11.96 57.32Q12.11 54.71 12.32 51.71Q12.53 48.71 12.74 45.62Q12.95 42.53 13.13 39.50Q13.31 36.47 13.49 33.89L13.49 33.89Q13.97 33.23 15.44 32.42Q16.91 31.61 19.55 31.61L19.55 31.61Q22.37 31.61 23.99 32.51Q25.61 33.41 26.45 35.45L26.45 35.45Q27.11 37.07 27.83 39.08Q28.55 41.09 29.27 43.19Q29.99 45.29 30.68 47.36Q31.37 49.43 31.97 51.17L31.97 51.17L32.27 51.17Q33.95 45.89 35.63 40.94Q37.31 35.99 38.57 32.63L38.57 32.63Q39.41 32.21 40.70 31.91Q41.99 31.61 43.55 31.61L43.55 31.61Q46.25 31.61 47.87 32.39Q49.49 33.17 49.79 34.67L49.79 34.67Q50.03 35.87 50.33 38.33Q50.63 40.79 50.93 43.97Q51.23 47.15 51.53 50.66Q51.83 54.17 52.07 57.44Q52.31 60.71 52.49 63.41Q52.67 66.11 52.73 67.61L52.73 67.61Q51.83 68.15 50.81 68.42Q49.79 68.69 48.23 68.69L48.23 68.69Q46.25 68.69 44.84 67.97Q43.43 67.25 43.31 65.15L43.31 65.15Q42.89 58.19 42.74 52.40Q42.59 46.61 42.41 42.89L42.41 42.89L42.11 42.89Q41.39 45.41 40.04 49.25Q38.69 53.09 36.71 59.15ZM88.19 36.89L88.19 36.89Q88.19 38.27 87.47 39.32Q86.75 40.37 85.79 40.97L85.79 40.97Q84.23 39.95 82.40 39.17Q80.57 38.39 78.05 38.39L78.05 38.39Q73.25 38.39 70.55 41.42Q67.85 44.45 67.85 50.03L67.85 50.03Q67.85 55.79 70.70 58.70Q73.55 61.61 78.53 61.61L78.53 61.61Q81.11 61.61 82.94 60.92Q84.77 60.23 86.33 59.27L86.33 59.27Q87.23 59.99 87.80 61.10Q88.37 62.21 88.37 63.59L88.37 63.59Q88.37 64.79 87.74 65.84Q87.11 66.89 85.55 67.61L85.55 67.61Q84.35 68.21 82.31 68.72Q80.27 69.23 77.27 69.23L77.27 69.23Q73.25 69.23 69.77 68.09Q66.29 66.95 63.71 64.61Q61.13 62.27 59.66 58.64Q58.19 55.01 58.19 50.03L58.19 50.03Q58.19 45.35 59.66 41.75Q61.13 38.15 63.65 35.72Q66.17 33.29 69.53 32.03Q72.89 30.77 76.73 30.77L76.73 30.77Q82.19 30.77 85.19 32.51Q88.19 34.25 88.19 36.89Z" fill="#fff"></path></svg>